<?xml version="1.0" encoding="utf-8"?>
<!-- Generator: Adobe Illustrator 23.0.2, SVG Export Plug-In . SVG Version: 6.00 Build 0)  -->
<svg version="1.1" id="Layer_1" xmlns="http://www.w3.org/2000/svg" xmlns:xlink="http://www.w3.org/1999/xlink" x="0px" y="0px"
	 viewBox="0 0 720 405.35" style="enable-background:new 0 0 720 405.35;" xml:space="preserve">
<style type="text/css">
	.st0{fill:#627CBA;}
	.st1{fill:#415BA4;}
</style>
<g>
	<path class="st0" d="M609.58,215.62h-0.36c-1.55,0-2.89,0.9-3.54,2.21c0.01-0.02,0.01-0.03,0.02-0.05c0,0-0.1,0.15-0.2,0.45
		c0.01-0.02,0.02-0.03,0.03-0.05c-0.02,0.04-0.03,0.08-0.05,0.13c0.01-0.02,0.01-0.05,0.02-0.07c-0.36,0.74-0.94,1.59-1.25,2.02l0,0
		c-2.96,4.16-7.78,6.99-13.05,6.99c-8.66,0-16.1-7.62-16.1-16.27c0-9.35,7.44-16.36,16.1-16.36c5.61,0,10.7,2.95,13.6,7.56
		c0.27,0.43,0.41,0.69,0.47,0.81c-0.05-0.11-0.1-0.24-0.14-0.37c0.52,1.57,2.01,2.72,3.76,2.72h0.16c2.18,0,3.96-1.78,3.96-3.96
		v-0.19c0-0.94-0.33-1.8-0.88-2.47c-4.15-6.73-11.68-11.36-20.92-11.36c-14.2,0-24.41,10.91-24.41,23.63
		c0,12.9,9.69,23.54,24.41,23.54c10.23,0,18.03-5.15,21.84-12.62l0,0c0.32-0.57,0.51-1.23,0.51-1.93v-0.39
		C613.54,217.4,611.76,215.62,609.58,215.62z"/>
</g>
<g>
	<path class="st0" d="M671.62,211.04c0-0.09,0.01-0.17,0.01-0.26c0-12.54-10.07-23.3-24.06-23.3c-14,0-24.07,10.75-24.07,23.3
		c0,12.72,9.56,23.21,24.07,23.21c6.65,0,12.25-2.21,16.38-5.82v2.29c0,0.02-0.01,0.04-0.01,0.06c0,0.02,0.01,0.04,0.01,0.06v0.03h0
		c0.05,2.08,1.74,3.75,3.84,3.75c2.09,0,3.79-1.67,3.84-3.75h0v-0.03c0-0.02,0.01-0.04,0.01-0.06c0-0.02-0.01-0.04-0.01-0.06V211.04
		z M647.56,226.83c-8.53,0-15.87-7.51-15.87-16.04c0-9.22,7.34-16.13,15.87-16.13c8.53,0,15.87,6.91,15.87,16.13
		C663.43,219.32,656.09,226.83,647.56,226.83z"/>
</g>
<g>
	<path class="st0" d="M555.41,191.2c0-2.12-1.72-3.85-3.85-3.85s-3.85,1.72-3.85,3.85c0,0.02,0.01,0.04,0.01,0.06v39.33
		c0,0.02-0.01,0.04-0.01,0.06s0.01,0.04,0.01,0.06v0.03h0c0.05,2.08,1.74,3.75,3.84,3.75s3.79-1.67,3.84-3.75h0v-0.03
		c0-0.02,0.01-0.04,0.01-0.06s-0.01-0.04-0.01-0.06v-39.33C555.41,191.24,555.41,191.22,555.41,191.2z"/>
</g>
<g>
	<path class="st0" d="M535.11,208.62c0-0.01,0-0.03,0-0.04c0-0.07-0.01-0.13-0.01-0.2v-0.6h-0.03c-0.39-11.25-9-20.4-21.94-20.4
		c-12.94,0-21.54,9.15-21.94,20.4h-0.04v22.97c0,2.08,1.69,3.76,3.76,3.76s3.76-1.69,3.76-3.76v-22.19
		c0-7.79,6.65-14.63,14.45-14.63c7.79,0,14.44,6.85,14.44,14.65v22.17c0,2.08,1.69,3.76,3.76,3.76s3.76-1.69,3.76-3.76v-21.21
		c0-0.03,0.01-0.06,0.01-0.09c0-0.03-0.01-0.05-0.01-0.07L535.11,208.62L535.11,208.62z"/>
</g>
<g>
	<path class="st1" d="M314.65,211.09c0-12.72-10.21-23.63-24.41-23.63s-24.41,10.91-24.41,23.63c0,12.9,9.69,23.54,24.41,23.54
		c6.74,0,12.43-2.24,16.61-5.9v2.32c0,0.02-0.01,0.04-0.01,0.06c0,0.02,0.01,0.04,0.01,0.06v0.03h0c0.05,2.11,1.77,3.81,3.89,3.81
		c2.12,0,3.84-1.7,3.89-3.81h0v-0.03c0-0.02,0.01-0.04,0.01-0.06c0-0.02-0.01-0.04-0.01-0.06v-19.7
		C314.64,211.26,314.65,211.18,314.65,211.09z M290.24,227.37c-8.66,0-16.1-7.62-16.1-16.27c0-9.35,7.44-16.36,16.1-16.36
		c8.66,0,16.1,7.01,16.1,16.36C306.34,219.75,298.89,227.37,290.24,227.37z"/>
</g>
<g>
	<path class="st1" d="M256.22,227.86c0,0-0.01,0-0.01,0h-2.33c-2.51,0-5.02-1.73-5.02-6.84v-45.63c0-0.04,0.01-0.08,0.01-0.12
		c0-0.04-0.01-0.08-0.01-0.12v-0.12h-0.01c-0.13-2.04-1.8-3.66-3.88-3.66c-2.07,0-3.75,1.62-3.88,3.66h-0.02v46.6
		c0,9.44,4.76,13.5,11.95,13.5h3.2v-0.04c2,0,3.62-1.62,3.62-3.62C259.84,229.48,258.22,227.86,256.22,227.86z"/>
</g>
<g>
	<path class="st1" d="M365.67,187.49c-1.84-0.9-4.06-0.15-4.97,1.69l-16.82,34.18l-16.93-34.18c-0.91-1.83-3.13-2.59-4.97-1.68
		c-1.84,0.91-2.59,3.13-1.68,4.97l20.26,40.92c0.63,1.26,1.91,2.06,3.32,2.06c0,0,0,0,0,0c1.41,0,2.7-0.8,3.32-2.07l20.14-40.92
		C368.26,190.62,367.51,188.39,365.67,187.49z"/>
</g>
<g>
	<path class="st1" d="M398.66,187.11c-14.02,0-24.59,10.24-24.59,23.82c0,14.1,10.74,23.82,26.12,23.82
		c6.82,0,12.67-1.86,17.38-5.54c0.47-0.39,1.69-1.54,1.69-2.78c0-2.15-2.16-4.34-4.28-4.34c-1.15,0-1.71,0.23-2.44,0.72
		c-3.47,2.36-7.28,4.67-12.15,4.67c-8.08,0-14.88-4.12-16.59-11.31l-0.58-2.44h34.35c2.98,0,4.98-1.91,4.98-4.74
		C422.55,200.52,416.06,187.11,398.66,187.11z M383.24,206.52c1.47-7.6,7.84-12.14,15.06-12.14c7.25,0,13.97,4.65,15.12,12.14
		H383.24z"/>
</g>
<g>
	<path class="st0" d="M454.83,173.82c-1.34,0-2.63-0.72-3.29-1.99c-0.95-1.81-0.25-4.06,1.57-5.01l21.64-11.32
		c1.81-0.95,4.06-0.25,5.01,1.57c0.95,1.81,0.25,4.06-1.57,5.01l-21.64,11.32C456,173.68,455.41,173.82,454.83,173.82z"/>
</g>
<g>
	<g>
		<g>
			<circle class="st1" cx="93.93" cy="207.22" r="4.04"/>
		</g>
	</g>
	<g>
		<path class="st1" d="M93.93,250.94c-24.93,0-45.2-20.28-45.2-45.2c0-18.21,10.84-34.56,27.61-41.65c1.87-0.79,4.02,0.08,4.81,1.95
			c0.79,1.87-0.08,4.02-1.95,4.81c-14.05,5.94-23.12,19.63-23.12,34.89c0,20.88,16.98,37.86,37.86,37.86s37.86-16.98,37.86-37.86
			c0-15.56-9.33-29.36-23.77-35.15c-1.88-0.75-2.8-2.89-2.04-4.78c0.75-1.88,2.9-2.79,4.78-2.04c17.24,6.92,28.38,23.39,28.38,41.97
			C139.13,230.66,118.85,250.94,93.93,250.94z"/>
	</g>
	<g>
		<path class="st1" d="M93.6,191.4c-2.03,0-3.67-1.64-3.67-3.67v-35.78c0-2.03,1.64-3.67,3.67-3.67h13.46
			c2.03,0,3.67,1.64,3.67,3.67s-1.64,3.67-3.67,3.67h-9.78v32.1C97.27,189.75,95.63,191.4,93.6,191.4z"/>
	</g>
	<g>
		<path class="st1" d="M93.93,230.39c-12.77,0-23.17-10.39-23.17-23.17s10.39-23.17,23.17-23.17s23.17,10.39,23.17,23.17
			S106.7,230.39,93.93,230.39z M93.93,191.4c-8.73,0-15.82,7.1-15.82,15.82c0,8.72,7.1,15.82,15.82,15.82s15.82-7.1,15.82-15.82
			C109.75,198.5,102.65,191.4,93.93,191.4z"/>
	</g>
</g>
<g>
	<path class="st1" d="M199.05,236.69c-18.24,0-33.08-14.84-33.08-33.08s14.84-33.08,33.08-33.08c11.6,0,22.5,6.2,28.44,16.18
		c1.05,1.76,0.47,4.04-1.29,5.09c-1.76,1.05-4.04,0.47-5.08-1.29c-4.61-7.74-13.07-12.55-22.07-12.55
		c-14.15,0-25.66,11.51-25.66,25.66s11.51,25.66,25.66,25.66c9.96,0,19.11-5.84,23.3-14.89c0.86-1.86,3.06-2.66,4.93-1.81
		c1.86,0.86,2.67,3.06,1.81,4.92C223.69,229.15,211.9,236.69,199.05,236.69z"/>
</g>
<g>
	<path class="st0" d="M436.89,216.3c-2.05,0-3.71-1.66-3.71-3.71v-34.38c0-2.05,1.66-3.71,3.71-3.71c2.05,0,3.71,1.66,3.71,3.71
		v34.38C440.59,214.64,438.93,216.3,436.89,216.3z"/>
</g>
<g>
	<path class="st0" d="M477.83,216.3c-2.05,0-3.71-1.66-3.71-3.71v-34.38c0-2.05,1.66-3.71,3.71-3.71s3.71,1.66,3.71,3.71v34.38
		C481.54,214.64,479.88,216.3,477.83,216.3z"/>
</g>
<g>
	<path class="st0" d="M457.36,236.78c-13.33,0-24.18-10.85-24.18-24.18h7.42c0,9.24,7.52,16.76,16.76,16.76
		c9.24,0,16.76-7.52,16.76-16.76h7.42C481.54,225.93,470.69,236.78,457.36,236.78z"/>
</g>
</svg>
